<svg id="visual" viewBox="0 0 1980 540" width="1980" height="540" xmlns="http://www.w3.org/2000/svg" xmlns:xlink="http://www.w3.org/1999/xlink" version="1.1"><rect x="0" y="0" width="1980" height="540" fill="#001220"></rect><path d="M0 311L33 325.5C66 340 132 369 198 374.8C264 380.7 330 363.3 396 357.2C462 351 528 356 594 365.3C660 374.7 726 388.3 792 381.2C858 374 924 346 990 337.3C1056 328.7 1122 339.3 1188 347.8C1254 356.3 1320 362.7 1386 361.7C1452 360.7 1518 352.3 1584 347.5C1650 342.7 1716 341.3 1782 345C1848 348.7 1914 357.3 1947 361.7L1980 366L1980 541L1947 541C1914 541 1848 541 1782 541C1716 541 1650 541 1584 541C1518 541 1452 541 1386 541C1320 541 1254 541 1188 541C1122 541 1056 541 990 541C924 541 858 541 792 541C726 541 660 541 594 541C528 541 462 541 396 541C330 541 264 541 198 541C132 541 66 541 33 541L0 541Z" fill="#fa7268"></path><path d="M0 361L33 364.7C66 368.3 132 375.7 198 377.8C264 380 330 377 396 371C462 365 528 356 594 356C660 356 726 365 792 371C858 377 924 380 990 389.7C1056 399.3 1122 415.7 1188 410.3C1254 405 1320 378 1386 375.3C1452 372.7 1518 394.3 1584 406.3C1650 418.3 1716 420.7 1782 412.3C1848 404 1914 385 1947 375.5L1980 366L1980 541L1947 541C1914 541 1848 541 1782 541C1716 541 1650 541 1584 541C1518 541 1452 541 1386 541C1320 541 1254 541 1188 541C1122 541 1056 541 990 541C924 541 858 541 792 541C726 541 660 541 594 541C528 541 462 541 396 541C330 541 264 541 198 541C132 541 66 541 33 541L0 541Z" fill="#ef5f67"></path><path d="M0 390L33 392.7C66 395.3 132 400.7 198 402.5C264 404.3 330 402.7 396 399.8C462 397 528 393 594 390.7C660 388.3 726 387.7 792 397C858 406.3 924 425.7 990 431.7C1056 437.7 1122 430.3 1188 426.2C1254 422 1320 421 1386 415.7C1452 410.3 1518 400.7 1584 402.5C1650 404.3 1716 417.7 1782 420.3C1848 423 1914 415 1947 411L1980 407L1980 541L1947 541C1914 541 1848 541 1782 541C1716 541 1650 541 1584 541C1518 541 1452 541 1386 541C1320 541 1254 541 1188 541C1122 541 1056 541 990 541C924 541 858 541 792 541C726 541 660 541 594 541C528 541 462 541 396 541C330 541 264 541 198 541C132 541 66 541 33 541L0 541Z" fill="#e34c67"></path><path d="M0 486L33 482C66 478 132 470 198 468.3C264 466.7 330 471.3 396 466.2C462 461 528 446 594 438.2C660 430.3 726 429.7 792 435.7C858 441.7 924 454.3 990 454.2C1056 454 1122 441 1188 435C1254 429 1320 430 1386 431.7C1452 433.3 1518 435.7 1584 443.7C1650 451.7 1716 465.3 1782 471.5C1848 477.7 1914 476.3 1947 475.7L1980 475L1980 541L1947 541C1914 541 1848 541 1782 541C1716 541 1650 541 1584 541C1518 541 1452 541 1386 541C1320 541 1254 541 1188 541C1122 541 1056 541 990 541C924 541 858 541 792 541C726 541 660 541 594 541C528 541 462 541 396 541C330 541 264 541 198 541C132 541 66 541 33 541L0 541Z" fill="#d53867"></path><path d="M0 469L33 474.7C66 480.3 132 491.7 198 495.7C264 499.7 330 496.3 396 496.7C462 497 528 501 594 500.8C660 500.7 726 496.3 792 498.3C858 500.3 924 508.7 990 511C1056 513.3 1122 509.7 1188 510.2C1254 510.7 1320 515.3 1386 513.8C1452 512.3 1518 504.7 1584 502C1650 499.3 1716 501.7 1782 501.8C1848 502 1914 500 1947 499L1980 498L1980 541L1947 541C1914 541 1848 541 1782 541C1716 541 1650 541 1584 541C1518 541 1452 541 1386 541C1320 541 1254 541 1188 541C1122 541 1056 541 990 541C924 541 858 541 792 541C726 541 660 541 594 541C528 541 462 541 396 541C330 541 264 541 198 541C132 541 66 541 33 541L0 541Z" fill="#c62368"></path></svg>